<svg xmlns="http://www.w3.org/2000/svg" xmlns:xlink="http://www.w3.org/1999/xlink" width="1080" zoomAndPan="magnify" viewBox="0 0 810 599.999999" height="800" preserveAspectRatio="xMidYMid meet" version="1.0"><defs><g/><clipPath id="fd8d6b7b5e"><path d="M 256 60 L 543 60 L 543 408.75 L 256 408.75 Z M 256 60 " clip-rule="nonzero"/></clipPath></defs><g fill="#221a00" fill-opacity="1"><g transform="translate(29.528336, 404.33706)"><g><path d="M 8.367188 -85.128906 L 8.367188 0 L 21.054688 0 L 21.054688 -37.921875 L 24.453125 -37.921875 L 33.605469 0 L 46.292969 0 L 36.351562 -41.191406 C 39.621094 -43.152344 42.105469 -46.160156 43.808594 -50.082031 C 45.375 -54.007812 46.292969 -59.5 46.292969 -66.296875 C 46.292969 -71.53125 45.769531 -76.105469 44.722656 -79.769531 C 43.675781 -83.429688 41.976562 -86.304688 39.882812 -88.527344 C 37.792969 -90.621094 35.175781 -92.191406 32.039062 -93.238281 C 28.898438 -94.152344 25.238281 -94.675781 21.054688 -94.675781 L 5.230469 -94.675781 Z M 21.054688 -45.636719 L 21.054688 -86.828125 C 23.40625 -86.828125 25.367188 -86.175781 26.9375 -85 C 28.507812 -83.691406 29.683594 -82.121094 30.597656 -80.289062 C 31.382812 -78.328125 32.039062 -76.105469 32.429688 -73.753906 C 32.691406 -71.269531 32.953125 -68.785156 32.953125 -66.296875 C 32.953125 -63.683594 32.691406 -61.066406 32.429688 -58.714844 C 32.039062 -56.230469 31.382812 -54.007812 30.597656 -52.175781 C 29.683594 -50.214844 28.507812 -48.644531 26.9375 -47.46875 C 25.367188 -46.292969 23.40625 -45.636719 21.054688 -45.636719 Z M 21.054688 -45.636719 "/></g></g></g><g fill="#221a00" fill-opacity="1"><g transform="translate(105.495075, 404.33706)"><g><path d="M 7.191406 -94.675781 L 7.191406 0 L 35.570312 0 L 35.570312 -6.277344 L 19.875 -6.277344 L 19.875 -41.0625 L 29.292969 -41.0625 L 32.429688 -47.335938 L 19.875 -47.335938 L 19.875 -88.398438 L 32.429688 -88.398438 L 35.570312 -94.675781 Z M 7.191406 -94.675781 "/></g></g></g><g fill="#221a00" fill-opacity="1"><g transform="translate(169.433683, 404.33706)"><g><path d="M 8.367188 -88.398438 L 8.367188 0 L 21.054688 0 C 37.792969 0 46.292969 -15.824219 46.292969 -47.335938 C 46.292969 -78.722656 37.792969 -94.542969 21.054688 -94.675781 L 5.230469 -94.675781 Z M 21.054688 -7.714844 L 21.054688 -86.828125 C 25.105469 -86.566406 28.113281 -83.429688 30.207031 -77.285156 C 32.300781 -71.007812 33.34375 -61.066406 33.34375 -47.335938 C 33.34375 -33.476562 32.300781 -23.539062 30.207031 -17.390625 C 28.113281 -11.113281 25.105469 -7.976562 21.054688 -7.714844 Z M 21.054688 -7.714844 "/></g></g></g><g fill="#221a00" fill-opacity="1"><g transform="translate(505.901235, 404.33706)"><g><path d="M 21.445312 0 C 24.0625 0 26.414062 -0.523438 28.769531 -1.570312 C 31.121094 -2.617188 33.085938 -4.054688 34.914062 -6.015625 C 36.613281 -7.976562 37.921875 -10.332031 38.96875 -13.078125 C 39.882812 -15.691406 40.277344 -18.699219 40.277344 -22.097656 C 40.277344 -24.976562 39.882812 -27.59375 39.230469 -30.207031 C 38.445312 -32.691406 37.53125 -35.175781 36.484375 -37.53125 C 35.4375 -39.882812 34.128906 -42.105469 32.691406 -44.328125 C 31.253906 -46.554688 29.816406 -48.777344 28.375 -50.867188 C 26.285156 -53.875 24.324219 -56.882812 22.621094 -59.761719 C 20.792969 -62.636719 19.613281 -65.515625 18.960938 -68.652344 C 18.699219 -69.304688 18.570312 -69.960938 18.570312 -70.746094 C 18.4375 -71.398438 18.4375 -72.050781 18.4375 -72.835938 C 18.4375 -75.582031 19.09375 -78.066406 20.398438 -80.421875 C 21.707031 -82.644531 23.667969 -83.820312 26.414062 -83.820312 C 27.984375 -83.820312 29.421875 -83.167969 30.859375 -82.121094 C 32.300781 -81.074219 33.476562 -79.898438 34.523438 -78.589844 L 40.015625 -83.035156 C 38.054688 -86.304688 35.570312 -89.050781 32.691406 -91.273438 C 29.683594 -93.5 26.285156 -94.675781 22.492188 -94.675781 C 19.875 -94.675781 17.523438 -94.019531 15.167969 -92.976562 C 12.816406 -91.929688 10.855469 -90.359375 9.152344 -88.398438 C 7.453125 -86.4375 6.144531 -84.082031 5.101562 -81.46875 C 4.054688 -78.722656 3.660156 -75.714844 3.921875 -72.445312 C 3.921875 -69.566406 4.183594 -66.953125 4.96875 -64.46875 C 5.621094 -61.851562 6.539062 -59.5 7.585938 -57.144531 C 8.628906 -54.792969 9.9375 -52.4375 11.375 -50.214844 C 12.816406 -47.992188 14.253906 -45.898438 15.824219 -43.808594 C 17.914062 -40.667969 19.746094 -37.792969 21.578125 -34.914062 C 23.277344 -32.039062 24.453125 -29.03125 25.238281 -26.023438 C 25.367188 -25.238281 25.5 -24.585938 25.628906 -23.929688 C 25.628906 -23.144531 25.761719 -22.492188 25.761719 -21.839844 C 25.761719 -20.398438 25.5 -18.960938 25.238281 -17.652344 C 24.847656 -16.347656 24.324219 -15.167969 23.667969 -14.121094 C 23.015625 -13.078125 22.230469 -12.160156 21.316406 -11.636719 C 20.269531 -10.984375 19.222656 -10.722656 17.914062 -10.722656 C 16.085938 -10.722656 14.515625 -11.246094 13.078125 -12.554688 C 11.636719 -13.730469 10.460938 -14.90625 9.675781 -16.085938 L 4.183594 -11.636719 C 4.445312 -10.984375 5.101562 -10.070312 6.015625 -8.761719 C 6.800781 -7.453125 7.976562 -6.277344 9.414062 -4.96875 C 10.855469 -3.660156 12.554688 -2.484375 14.644531 -1.4375 C 16.605469 -0.390625 18.832031 0 21.445312 0 Z M 21.445312 0 "/></g></g></g><g fill="#221a00" fill-opacity="1"><g transform="translate(574.546473, 404.33706)"><g><path d="M 16.605469 -88.398438 L 16.605469 0 L 29.160156 0 L 29.160156 -88.398438 L 41.84375 -88.398438 L 41.84375 -94.675781 L 3.921875 -94.675781 L 3.921875 -88.398438 Z M 16.605469 -88.398438 "/></g></g></g><g fill="#221a00" fill-opacity="1"><g transform="translate(644.760613, 404.33706)"><g><path d="M 16.867188 -85.128906 L 2.617188 0 L 8.890625 0 L 11.507812 -15.824219 L 28.375 -15.824219 L 30.992188 0 L 43.675781 0 L 27.851562 -94.675781 L 15.300781 -94.675781 Z M 27.332031 -22.097656 L 12.554688 -22.097656 L 20.007812 -66.296875 Z M 27.332031 -22.097656 "/></g></g></g><g fill="#221a00" fill-opacity="1"><g transform="translate(715.49771, 404.33706)"><g><path d="M 33.214844 0 C 35.832031 0 38.445312 -0.390625 41.0625 -1.175781 C 43.675781 -1.960938 46.03125 -3.398438 48.121094 -5.230469 L 48.121094 -41.0625 L 35.4375 -37.921875 L 35.4375 -6.800781 C 34.652344 -6.40625 33.867188 -6.277344 33.085938 -6.277344 C 30.992188 -6.277344 29.292969 -7.191406 27.984375 -9.152344 C 26.546875 -10.984375 25.367188 -13.207031 24.585938 -15.824219 C 23.277344 -19.746094 22.359375 -24.453125 21.839844 -30.078125 C 21.183594 -35.570312 20.921875 -41.324219 20.921875 -47.335938 C 20.921875 -53.351562 21.183594 -59.105469 21.839844 -64.597656 C 22.359375 -70.089844 23.277344 -74.929688 24.585938 -78.851562 C 25.5 -81.730469 26.675781 -84.082031 28.113281 -85.652344 C 29.554688 -87.222656 31.121094 -88.007812 32.691406 -88.007812 C 33.867188 -88.007812 35.046875 -87.351562 36.222656 -86.304688 C 37.398438 -85.128906 38.445312 -83.296875 39.492188 -80.945312 L 39.492188 -93.628906 C 38.183594 -94.019531 37.007812 -94.28125 35.960938 -94.414062 C 34.914062 -94.414062 33.867188 -94.542969 33.085938 -94.542969 C 23.144531 -94.542969 15.691406 -90.621094 10.984375 -83.035156 C 6.277344 -75.320312 3.921875 -63.421875 3.921875 -47.335938 C 3.921875 -41.324219 4.316406 -35.570312 5.101562 -29.945312 C 5.882812 -24.191406 7.453125 -19.222656 9.675781 -14.777344 C 11.898438 -10.332031 14.90625 -6.667969 18.699219 -4.054688 C 22.359375 -1.308594 27.199219 0 33.214844 0 Z M 33.214844 0 "/></g></g></g><g fill="#221a00" fill-opacity="1"><g transform="translate(188.972876, 500.317721)"><g><path d="M 3.1875 -41.945312 L 3.1875 0 L 15.757812 0 L 15.757812 -2.78125 L 8.804688 -2.78125 L 8.804688 -41.945312 Z M 3.1875 -41.945312 "/></g></g></g><g fill="#221a00" fill-opacity="1"><g transform="translate(246.686761, 500.317721)"><g><path d="M 7.472656 -37.714844 L 1.160156 0 L 3.941406 0 L 5.097656 -7.011719 L 12.570312 -7.011719 L 13.730469 0 L 19.351562 0 L 12.339844 -41.945312 L 6.777344 -41.945312 Z M 12.109375 -9.792969 L 5.5625 -9.792969 L 8.863281 -29.375 Z M 12.109375 -9.792969 "/></g></g></g><g fill="#221a00" fill-opacity="1"><g transform="translate(307.413308, 500.317721)"><g><path d="M 3.707031 -38.238281 L 3.707031 0 L 6.488281 0 L 6.488281 -30.761719 L 18.019531 0 L 21.839844 0 L 21.839844 -41.945312 L 19.0625 -41.945312 L 19.0625 -12.570312 L 7.878906 -41.945312 L 2.316406 -41.945312 C 2.316406 -41.886719 2.433594 -41.539062 2.664062 -40.902344 C 2.898438 -40.207031 3.246094 -39.339844 3.707031 -38.238281 Z M 3.707031 -38.238281 "/></g></g></g><g fill="#221a00" fill-opacity="1"><g transform="translate(372.6588, 500.317721)"><g><path d="M 3.707031 -39.164062 L 3.707031 0 L 9.328125 0 C 16.742188 0 20.507812 -7.011719 20.507812 -20.972656 C 20.507812 -34.878906 16.742188 -41.886719 9.328125 -41.945312 L 2.316406 -41.945312 Z M 9.328125 -3.417969 L 9.328125 -38.46875 C 11.125 -38.351562 12.457031 -36.960938 13.382812 -34.238281 C 14.308594 -31.457031 14.773438 -27.054688 14.773438 -20.972656 C 14.773438 -14.832031 14.308594 -10.429688 13.382812 -7.707031 C 12.457031 -4.925781 11.125 -3.535156 9.328125 -3.417969 Z M 9.328125 -3.417969 "/></g></g></g><g fill="#221a00" fill-opacity="1"><g transform="translate(435.1234, 500.317721)"><g/></g></g><g fill="#221a00" fill-opacity="1"><g transform="translate(486.927908, 500.317721)"><g><path d="M 13.324219 0 C 14.253906 0 15.179688 -0.117188 16.105469 -0.464844 L 16.105469 -4.578125 C 15.238281 -3.359375 14.308594 -2.78125 13.324219 -2.78125 C 12.167969 -2.78125 11.179688 -3.417969 10.371094 -4.808594 C 10.023438 -5.328125 9.675781 -6.140625 9.445312 -7.242188 C 9.152344 -8.34375 8.921875 -9.617188 8.75 -11.066406 C 8.574219 -12.515625 8.457031 -14.078125 8.402344 -15.816406 C 8.285156 -17.554688 8.285156 -19.292969 8.285156 -21.089844 C 8.285156 -22.828125 8.285156 -24.507812 8.402344 -26.1875 C 8.457031 -27.867188 8.574219 -29.429688 8.75 -30.878906 C 8.921875 -32.328125 9.152344 -33.601562 9.445312 -34.703125 C 9.675781 -35.746094 10.023438 -36.558594 10.371094 -37.136719 C 11.179688 -38.46875 12.167969 -39.164062 13.324219 -39.164062 C 14.308594 -39.164062 15.238281 -38.527344 16.105469 -37.367188 L 16.105469 -41.480469 C 15.179688 -41.769531 14.253906 -41.945312 13.324219 -41.945312 C 11.125 -41.945312 9.269531 -41.480469 7.820312 -40.671875 C 6.316406 -39.800781 5.15625 -38.527344 4.230469 -36.789062 C 3.300781 -35.050781 2.664062 -32.847656 2.316406 -30.242188 C 1.910156 -27.578125 1.738281 -24.507812 1.738281 -20.972656 C 1.738281 -17.378906 1.910156 -14.308594 2.316406 -11.703125 C 2.664062 -9.039062 3.300781 -6.894531 4.230469 -5.15625 C 5.097656 -3.417969 6.257812 -2.085938 7.761719 -1.273438 C 9.269531 -0.40625 11.125 0 13.324219 0 Z M 13.324219 0 "/></g></g></g><g fill="#221a00" fill-opacity="1"><g transform="translate(544.989394, 500.317721)"><g><path d="M 12.917969 0 C 15.410156 0 17.378906 -0.578125 18.886719 -1.855469 C 20.394531 -3.070312 21.492188 -4.691406 22.304688 -6.664062 C 23.058594 -8.632812 23.523438 -10.890625 23.753906 -13.441406 C 23.984375 -15.933594 24.101562 -18.421875 24.101562 -20.972656 C 24.101562 -23.464844 23.984375 -25.953125 23.753906 -28.445312 C 23.523438 -30.9375 23.058594 -33.195312 22.304688 -35.226562 C 21.492188 -37.195312 20.394531 -38.816406 18.886719 -40.089844 C 17.378906 -41.308594 15.410156 -41.945312 12.917969 -41.945312 C 10.371094 -41.945312 8.402344 -41.308594 6.894531 -40.089844 C 5.386719 -38.816406 4.289062 -37.195312 3.535156 -35.226562 C 2.722656 -33.195312 2.257812 -30.9375 2.027344 -28.445312 C 1.796875 -25.953125 1.738281 -23.464844 1.738281 -20.972656 C 1.738281 -18.421875 1.796875 -15.933594 2.027344 -13.441406 C 2.257812 -10.890625 2.722656 -8.632812 3.535156 -6.664062 C 4.289062 -4.691406 5.386719 -3.070312 6.894531 -1.855469 C 8.402344 -0.578125 10.371094 0 12.917969 0 Z M 12.917969 -2.78125 C 11.992188 -2.78125 11.238281 -3.300781 10.601562 -4.34375 C 9.90625 -5.386719 9.386719 -6.71875 8.980469 -8.457031 C 8.515625 -10.136719 8.226562 -12.050781 7.996094 -14.253906 C 7.761719 -16.453125 7.648438 -18.65625 7.648438 -20.972656 C 7.648438 -23.230469 7.761719 -25.433594 7.996094 -27.636719 C 8.226562 -29.835938 8.515625 -31.75 8.980469 -33.488281 C 9.386719 -35.167969 9.90625 -36.558594 10.601562 -37.601562 C 11.238281 -38.644531 11.992188 -39.164062 12.917969 -39.164062 C 13.789062 -39.164062 14.542969 -38.644531 15.238281 -37.601562 C 15.875 -36.558594 16.394531 -35.167969 16.859375 -33.488281 C 17.324219 -31.75 17.613281 -29.835938 17.84375 -27.636719 C 18.074219 -25.433594 18.191406 -23.230469 18.191406 -20.972656 C 18.191406 -18.65625 18.074219 -16.453125 17.84375 -14.253906 C 17.613281 -12.050781 17.324219 -10.136719 16.859375 -8.457031 C 16.394531 -6.71875 15.875 -5.386719 15.238281 -4.34375 C 14.542969 -3.300781 13.789062 -2.78125 12.917969 -2.78125 Z M 12.917969 -2.78125 "/></g></g></g><g fill="#221a00" fill-opacity="1"><g transform="translate(611.04597, 500.317721)"><g><path d="M 4.984375 0 C 5.5625 0 6.023438 -0.171875 6.429688 -0.578125 C 6.835938 -0.984375 7.066406 -1.507812 7.066406 -2.085938 C 7.066406 -2.664062 6.835938 -3.128906 6.429688 -3.535156 C 6.023438 -3.941406 5.5625 -4.171875 4.984375 -4.171875 C 4.402344 -4.171875 3.882812 -3.941406 3.476562 -3.535156 C 3.070312 -3.128906 2.898438 -2.664062 2.898438 -2.085938 C 2.898438 -1.507812 3.070312 -0.984375 3.476562 -0.578125 C 3.882812 -0.171875 4.402344 0 4.984375 0 Z M 4.984375 0 "/></g></g></g><g clip-path="url(#fd8d6b7b5e)"><path fill="#ff3131" d="M 540.3125 187.65625 C 537.835938 186.261719 534.699219 187.136719 533.300781 189.613281 C 517.125 218.335938 490.734375 239.03125 459 247.890625 C 439.234375 253.40625 418.875 253.925781 399.390625 249.621094 C 405.53125 249.527344 411.675781 249.007812 417.800781 248.054688 C 434.875 245.402344 451.085938 239.53125 465.976562 230.613281 C 480.871094 221.691406 493.695312 210.171875 504.097656 196.367188 C 514.871094 182.070312 522.5625 165.945312 526.957031 148.4375 C 527.648438 145.679688 525.972656 142.882812 523.214844 142.1875 C 520.457031 141.496094 517.660156 143.171875 516.96875 145.929688 C 508.949219 177.90625 488.960938 204.84375 460.691406 221.777344 C 439.121094 234.691406 414.703125 240.609375 390.148438 239.125 C 408 230.90625 422.878906 217.433594 432.964844 200.085938 C 445.898438 177.828125 449.398438 151.863281 442.820312 126.972656 C 442.09375 124.226562 439.273438 122.585938 436.527344 123.3125 C 433.777344 124.039062 432.136719 126.859375 432.863281 129.605469 C 438.746094 151.835938 435.617188 175.027344 424.0625 194.90625 C 412.507812 214.78125 393.90625 228.972656 371.6875 234.851562 C 370.445312 235.179688 369.199219 235.476562 367.953125 235.75 C 367.734375 235.695312 367.511719 235.644531 367.289062 235.585938 C 364.972656 235.003906 362.683594 234.351562 360.417969 233.644531 C 334.238281 217.296875 315.371094 192.121094 307.023438 162.1875 C 298.164062 130.433594 302.199219 97.128906 318.378906 68.410156 C 319.773438 65.929688 318.898438 62.792969 316.421875 61.394531 C 313.945312 59.996094 310.804688 60.875 309.410156 63.351562 C 300.550781 79.074219 295.035156 96.066406 293.015625 113.855469 C 291.066406 131.035156 292.441406 148.226562 297.105469 164.953125 C 301.773438 181.683594 309.492188 197.101562 320.050781 210.789062 C 321.007812 212.03125 321.992188 213.246094 322.992188 214.449219 C 310.480469 205.003906 299.78125 193.136719 291.488281 179.273438 C 274.5625 150.988281 269.660156 117.800781 277.683594 85.828125 C 278.375 83.070312 276.699219 80.269531 273.945312 79.578125 C 271.1875 78.886719 268.390625 80.558594 267.699219 83.320312 C 263.304688 100.824219 262.46875 118.675781 265.21875 136.363281 C 267.871094 153.449219 273.738281 169.664062 282.652344 184.566406 C 291.570312 199.464844 303.085938 212.296875 316.882812 222.707031 C 324.542969 228.488281 332.730469 233.378906 341.371094 237.351562 C 329.199219 236.175781 317.316406 232.378906 306.425781 226.042969 C 286.558594 214.484375 272.378906 195.875 266.5 173.644531 C 265.773438 170.894531 262.957031 169.257812 260.210938 169.980469 C 257.460938 170.707031 255.824219 173.527344 256.550781 176.277344 C 263.128906 201.167969 279.003906 222.003906 301.25 234.945312 C 313.226562 241.917969 326.277344 246.148438 339.65625 247.542969 C 347.410156 248.351562 355.273438 248.203125 363.101562 247.085938 C 378.003906 255.027344 393.996094 260.007812 410.691406 261.90625 C 411.109375 261.953125 411.527344 262 411.949219 262.042969 C 428.703125 263.789062 445.453125 262.367188 461.765625 257.8125 C 478.480469 253.144531 493.894531 245.421875 507.574219 234.855469 C 521.738281 223.917969 533.410156 210.394531 542.273438 194.671875 C 543.664062 192.195312 542.789062 189.050781 540.3125 187.65625 Z M 437.402344 283.460938 C 430.902344 281.984375 388.832031 262.765625 360.910156 257.757812 C 352.210938 255.691406 326.730469 249.949219 317.058594 251.203125 C 310.492188 252.050781 293.496094 255.207031 292.785156 261.792969 C 292.03125 268.8125 308.765625 276.824219 315.660156 278.339844 C 319.207031 279.117188 325.179688 278.421875 331.527344 277.164062 C 312.785156 305.585938 290.300781 408.738281 290.300781 408.738281 L 416.179688 408.738281 L 387.644531 331.589844 L 368.761719 315.273438 L 386.953125 325.539062 C 386.953125 325.539062 436.523438 323.761719 446.453125 320.683594 C 453.207031 318.59375 469.328125 307.632812 465.117188 300.429688 C 453.925781 281.289062 462 289.050781 437.402344 283.460938 " fill-opacity="1" fill-rule="nonzero"/></g></svg>